<svg xmlns="http://www.w3.org/2000/svg" version="1.1" xmlns:xlink="http://www.w3.org/1999/xlink" xmlns:svgjs="http://svgjs.dev/svgjs" width="100%" height="100%" viewBox="0 0 1000 600"><rect width="1000" height="600" x="0" y="0" fill="#191919"/><g><rect width="333.3333333333333" height="333.3333333333333" rx="13.333333333333334" ry="13.333333333333334" y="138.5013634850922" fill="#b88746" transform="matrix(1.0749990945442789,0,0,1.0749990945442789,0,-28.05537275453956)" x="116.27914428710938"/><path d="M327.2290791980787 245.29886205579405L322.4224809437692 254.74141010568022Q321.4839144207383 256.27724623427616 320.460023668341 257.04516429857415Q319.43613291594374 257.81308236287214 317.8149725579814 257.81308236287214L317.8149725579814 257.81308236287214Q316.0800465608637 257.81308236287214 313.77629236796975 256.04971495596567Q311.4725381750759 254.31478895884803 307.91736195147416 252.21012463447582Q304.3906271376612 250.1339017198924 299.4418218344076 248.37053431298597Q294.4645751213652 246.63560831586832 287.41110549373946 246.63560831586832L287.41110549373946 246.63560831586832Q280.755815603157 246.63560831586832 275.63636184117047 248.4274171325636Q270.5169080791841 250.21922594925886 267.07549749473753 253.29089820645075Q263.6340869102911 256.3625704636426 261.89916091317343 260.51501629280943Q260.1642349160559 264.6674621219762 260.1642349160559 269.4740603762857L260.1642349160559 269.4740603762857Q260.1642349160559 275.6174048906695 263.1790243536701 279.6560850806811Q266.19381379128436 283.69476527069264 271.17106050432676 286.5673476593629Q276.14830721736917 289.43993004803303 282.43385878069705 291.5445943724053Q288.7194103440248 293.64925869677745 295.3462588248185 295.8961300700937Q301.9446658958233 298.14300144341007 308.23021745915105 300.9587010125026Q314.54421043226773 303.77440058159516 319.49301573552134 308.0690534597061Q324.47026244856374 312.36370633781695 327.485051886178 318.6208164913559Q330.49984132379234 324.877926644895 330.49984132379234 333.97917777731544L330.49984132379234 333.97917777731544Q330.49984132379234 343.59237428593445 327.2290791980787 352.0394729932121Q323.95831707236516 360.48657170048983 317.6443240992485 366.7436818540289Q311.3587725359206 373.0007920075679 302.20063858392257 376.5844096409584Q293.04250463192454 380.16802727434896 281.35308520872206 380.16802727434896L281.35308520872206 380.16802727434896Q267.13238031431524 380.16802727434896 255.41451948132394 374.99169069278486Q243.66821723854383 369.81535411122076 235.39176698999904 360.99851707668853L235.39176698999904 360.99851707668853L241.10849035755058 351.5844104365911Q241.93329124142622 350.4751954548274 243.1278304525564 349.70727739052944Q244.29392825389775 348.93935932623145 245.71599874333842 348.93935932623145L245.71599874333842 348.93935932623145Q247.87754588728828 348.93935932623145 250.63636263680323 351.2431135191253Q253.39517938631818 353.54686771201926 257.5476252154849 356.3056844615342Q261.70007104465174 359.06450121104916 267.58744287093623 361.368255403943Q273.4748146972207 363.672009596837 281.97879622407595 363.672009596837L281.97879622407595 363.672009596837Q289.0322658517018 363.672009596837 294.5783407605205 361.7379937311976Q300.0959742595504 359.77553645576944 303.93556458104024 356.2488016419566Q307.77515490253006 352.7220668281437 309.8229364073246 347.8017029346789Q311.8707179121193 342.88133904121406 311.8707179121193 336.8517601659856L311.8707179121193 336.8517601659856Q311.8707179121193 330.1964702754032 308.85592847450505 325.9302588070811Q305.8411390368907 321.6924887485479 300.920775143426 318.8199063598776Q296.0004112499612 315.9473239712075 289.7148596866333 313.9564252859905Q283.4008667135166 311.96552660077356 276.80245964251185 309.86086227640135Q270.2040525715071 307.7561979520291 263.8900595983904 304.99738120251413Q257.6045080350626 302.2385644529992 252.68414414159778 297.83014593573307Q247.76378024813303 293.42172741846696 244.74899081051873 286.8233203474622Q241.73420137290452 280.2249132764574 241.73420137290452 270.4979511286831L241.73420137290452 270.4979511286831Q241.73420137290452 262.70500484654815 244.74899081051873 255.45244535040058Q247.76378024813303 248.17144444446427 253.50894502547342 242.54004530627913Q259.2541098028138 236.908646168094 267.7012085100914 233.52411840322517Q276.14830721736917 230.16803204814516 287.09824998606246 230.16803204814516L287.09824998606246 230.16803204814516Q299.38493901483 230.16803204814516 309.51008089964773 234.0360637794238Q319.66366419425424 237.93253692049132 327.2290791980787 245.29886205579405L327.2290791980787 245.29886205579405Z " fill="#191919" transform="matrix(1.0749990945442789,0,0,1.0749990945442789,0,-28.05537275453956)"/><path d="M586.4229961895924 264.7456538503909L586.4229961895924 264.7456538503909Q598.664762619806 264.7456538503909 608.5440828968206 268.82624266046207Q618.4540842927079 272.90683147053335 625.357336039069 280.4237055943488Q632.2605877854301 287.94057971816414 635.942322050156 298.58692796699665Q639.6547374337547 309.23327621582916 639.6547374337547 322.3954762122243L639.6547374337547 322.3954762122243Q639.6547374337547 335.6497195652377 635.942322050156 346.23470557632476Q632.2605877854301 356.85037270628453 625.357336039069 364.3672468301Q618.4540842927079 371.8841209539153 608.5440828968206 375.90334752624113Q598.664762619806 379.92257409856694 586.4229961895924 379.92257409856694L586.4229961895924 379.92257409856694Q574.1505486405058 379.92257409856694 564.2712283634913 375.90334752624113Q554.3919080864767 371.8841209539153 547.4272941023702 364.3672468301Q540.4626801182637 356.85037270628453 536.7195836157923 346.23470557632476Q532.9458059944482 335.6497195652377 532.9458059944482 322.3954762122243L532.9458059944482 322.3954762122243Q532.9458059944482 309.23327621582916 536.7195836157923 298.58692796699665Q540.4626801182637 287.94057971816414 547.4272941023702 280.4237055943488Q554.3919080864767 272.90683147053335 564.2712283634913 268.82624266046207Q574.1505486405058 264.7456538503909 586.4229961895924 264.7456538503909ZM586.4229961895924 364.5820146622089L586.4229961895924 364.5820146622089Q602.990800380859 364.5820146622089 611.1519780010015 353.4754496302857Q619.313155621144 342.3688845983625 619.313155621144 322.4875195688425L619.313155621144 322.4875195688425Q619.313155621144 302.51411118270437 611.1519780010015 291.3461839130357Q602.990800380859 280.20893776223977 586.4229961895924 280.20893776223977L586.4229961895924 280.20893776223977Q578.0163696184682 280.20893776223977 571.8187836061795 283.0622818174023Q565.6518787127636 285.9463069914376 561.5099276649469 291.3461839130357Q557.3679766171301 296.7767419535064 555.3123416526582 304.66178950379447Q553.287387807059 312.54683705408246 553.287387807059 322.4875195688425L553.287387807059 322.4875195688425Q553.287387807059 332.42820208360246 555.3123416526582 340.2825685150178Q557.3679766171301 348.1369349464331 561.5099276649469 353.4754496302857Q565.6518787127636 358.84464543301107 571.8187836061795 361.6979894881736Q578.0163696184682 364.5820146622089 586.4229961895924 364.5820146622089ZM683.6207807783569 378.3885181549312L663.9541835809459 378.3885181549312L663.9541835809459 266.4944776261357L675.2141542072327 266.4944776261357Q678.4049905699951 266.4944776261357 679.6322353249038 267.7217223810443Q680.8594800798123 268.9182860170803 681.2890157440304 271.9250356666064L681.2890157440304 271.9250356666064L682.6083038555571 289.35191118630917Q688.3456730847552 277.66240489580434 696.8136618936248 271.0966454570431Q705.2509695836216 264.50020489940914 716.6336646853993 264.50020489940914L716.6336646853993 264.50020489940914Q721.2665136351795 264.50020489940914 725.0402912565235 265.5740440599542Q728.7833877589949 266.6172021016265 731.9742241217573 268.4887503528622L731.9742241217573 268.4887503528622L729.4583723741946 283.18500629289315Q728.6606632835039 285.9463069914376 726.0220870604505 285.9463069914376L726.0220870604505 285.9463069914376Q724.4880311168147 285.9463069914376 721.2665136351795 284.9031489497653Q718.0756772724169 283.82930978922025 712.3383080432191 283.82930978922025L712.3383080432191 283.82930978922025Q702.0601332208591 283.82930978922025 695.156881474498 289.81212796939985Q688.253629728137 295.76426503070684 683.6207807783569 307.1469601324844L683.6207807783569 307.1469601324844L683.6207807783569 378.3885181549312ZM786.8934269039191 380.1680230495487L786.8934269039191 380.1680230495487Q773.6391835509057 380.1680230495487 766.490482853563 372.74319228235146Q759.3724632750927 365.34904263402683 759.3724632750927 351.45049578468644L759.3724632750927 351.45049578468644L759.3724632750927 282.97023846078423L745.9034520899704 282.97023846078423Q744.1239471953529 282.97023846078423 742.9273835593169 281.8963993002392Q741.7001388044084 280.85324125856675 741.7001388044084 278.6442006997312L741.7001388044084 278.6442006997312L741.7001388044084 270.8205153871886L760.0474478902925 268.4887503528622L764.5575723645818 233.9111293833112Q764.8030213155635 232.25434896418452 765.9995849515994 231.2111909225122Q767.2268297065082 230.16803288083983 769.0983779577439 230.16803288083983L769.0983779577439 230.16803288083983L779.0390604725037 230.16803288083983L779.0390604725037 268.70351818497124L811.0701485756194 268.70351818497124L811.0701485756194 282.97023846078423L779.0390604725037 282.97023846078423L779.0390604725037 350.100526554287Q779.0390604725037 357.1878650138844 782.475345786248 360.59346920875583Q785.8809499811196 364.0297545225 791.3115080215903 364.0297545225L791.3115080215903 364.0297545225Q794.3796199088617 364.0297545225 796.6500227054428 363.20136431293673Q798.9204255020238 362.37297410337345 800.5772059211504 361.3911782994465Q802.2339863402772 360.3787013766468 803.3998688574404 359.5503111670835Q804.5657513746037 358.72192095752024 805.4248227030396 358.72192095752024L805.4248227030396 358.72192095752024Q806.9895597655482 358.72192095752024 808.1861234015842 360.59346920875583L808.1861234015842 360.59346920875583L813.9541737496547 369.981891583807Q808.8611080167839 374.737465009078 801.6817262005684 377.437403469877Q794.5023443843527 380.1680230495487 786.8934269039191 380.1680230495487Z " fill="#b88746" transform="matrix(1.0749990945442789,0,0,1.0749990945442789,0,-28.05537275453956)"/></g></svg>